<?xml version="1.0" encoding="iso-8859-1"?>
<!-- Uploaded to: SVG Repo, www.svgrepo.com, Generator: SVG Repo Mixer Tools -->
<svg fill="#000000" height="800px" width="800px" version="1.1" id="Layer_1" xmlns="http://www.w3.org/2000/svg" xmlns:xlink="http://www.w3.org/1999/xlink" 
	 viewBox="0 0 458.764 458.764" xml:space="preserve">
<g>
	<g>
		<g>
			<path d="M453.369,199.777H256.161c-2.98,0-5.396,2.416-5.396,5.396v15.346c0,14.693-11.911,26.604-26.604,26.604
				c-17.892,0-32.396,14.504-32.396,32.396c0,2.98,2.416,5.396,5.396,5.396h53.769v117.365c0,7.641,6.194,13.835,13.835,13.835
				s13.834-6.194,13.834-13.835V284.915H414.93V402.28c0,7.641,6.194,13.835,13.835,13.835s13.834-6.194,13.834-13.835V284.915
				h10.769c2.98,0,5.396-2.416,5.396-5.396v-74.346C458.765,202.192,456.349,199.777,453.369,199.777z"/>
			<path d="M452.765,133.056c0-13.301-10.782-24.083-24.083-24.083c-2.95,0-5.747-1.309-7.637-3.573
				c-1.89-2.264-2.679-5.25-2.152-8.153l8.61-47.461c0.313-1.724-0.156-3.497-1.278-4.842c-1.123-1.345-2.784-2.122-4.536-2.122
				H395.23c-2.14,0-4.113,1.157-5.157,3.024l-72.308,129.275h135V133.056z"/>
			<path d="M184.801,285.65c-1.076-8.423-7.175-15.34-15.397-17.463L135.76,259.5c-12.052,3.423-9.122,2.591-18.485,5.25
				c-13.874,3.94-28.316-4.113-32.256-17.987l-0.014-0.048l-18.744-66.482l34.209,57.239c3.179,5.319,8.873,8.423,14.844,8.423
				c3.31,0-1.561,1.126,73.737-20.259c9.187-2.609,14.52-12.172,11.911-21.36c-2.609-9.188-12.171-14.52-21.36-11.911
				l-56.249,15.975L95.95,162.489l27.919,26.977l7.408-2.104l1.305-18.385c1.008-14.205-9.69-26.537-23.894-27.545l-43.764-3.106
				c-7.172-0.509-14.23,1.999-19.472,6.92s-8.192,11.806-8.137,18.996l0.957,125.785H13.834C6.194,290.027,0,296.22,0,303.861
				v98.244c0,7.641,6.194,13.835,13.834,13.835c7.641,0,13.834-6.194,13.834-13.835v-38.344h79.299v38.344
				c0,7.641,6.194,13.835,13.835,13.835s13.834-6.194,13.834-13.835c0-105.353,0.065-98.559-0.133-100.064l10.911,2.817l11.9,93.133
				c1.454,11.382,11.862,19.407,23.215,17.954c11.368-1.453,19.407-11.846,17.954-23.215L184.801,285.65z M106.968,344.676H27.669
				v-26.98h79.299V344.676z"/>
			<circle cx="95.783" cy="82.87" r="40.221"/>
		</g>
	</g>
</g>
</svg>